# xmcd
#
# Track frame offsets: 
#        150
#        20475
#        43812
#        59575
#        80347
#        102832
#        123622
#        145125
#        169662
#        189125
#
# Disc length: 2808 seconds
#
# Revision: 0
# Processed by: cddbd v1.5.2PL0 Copyright (c) Steve Scherf et al.
# Submitted via: ExactAudioCopy v1.0b3
#
DISCID=830af60a
DTITLE=Huong Lan - Chieu Dong Que
DYEAR=1996
DGENRE=
TTITLE0=Em ve voi nguoi
TTITLE1=Nhanh cay trung ca
TTITLE2=Huong Lan, Che Linh - Moi anh ve tham que em
TTITLE3=Tieu Can mot khuc tinh ca
TTITLE4=Lua ve dem trang
TTITLE5=Chieu dong que
TTITLE6=Thuong nho que nha
TTITLE7=Huong Lan, Che Linh - Ngai ngung
TTITLE8=Bong nguoi cung thon
TTITLE9=Tieng hat La Lan
EXTD=
EXTT0=
EXTT1=
EXTT2=
EXTT3=
EXTT4=
EXTT5=
EXTT6=
EXTT7=
EXTT8=
EXTT9=
PLAYORDER=
